<?xml version="1.0" encoding="utf-8"?>
<!-- Generator: Adobe Illustrator 19.1.0, SVG Export Plug-In . SVG Version: 6.00 Build 0)  -->
<svg version="1.1" id="Layer_1" xmlns="http://www.w3.org/2000/svg" xmlns:xlink="http://www.w3.org/1999/xlink" x="0px" y="0px"
	 viewBox="-444 1590.9 371.5 46.2" style="enable-background:new -444 1590.9 371.5 46.2;" xml:space="preserve">
<g>
	<path d="M-403.4,1621.2c6.4-1.5,11-6.5,17.5-7.6c8.6-1.4,17.5,2.8,24,8.1c6.4,5.2,11.6,12.5,20.9,9c11.2-4.3,12.7-22.6,27.5-18.8
		c11.2,2.9,16.1,17.3,28.4,18.4c21,1.9,23.6-35.9,48.3-23.7c16.7,8.2,25.2,26.4,44.8,29.6c13.8,2.2,28.7,0.3,41.1-6.4
		c12.9-7,19.1-22.8,32.4-28.3c14.2-5.9,29.6,2.7,42.6-7.6c1.2-0.9,2.3-2,3.4-3H-444C-433.7,1606.5-420.6,1625.2-403.4,1621.2z"/>
</g>
</svg>
